{
  "asset": {
    "version": "2.0",
    "generator": "THREE.GLTFExporter"
  },
  "scenes": [
    {
      "name": "Scene",
      "nodes": [
        7
      ]
    }
  ],
  "scene": 0,
  "nodes": [
    {
      "matrix": [
        0.005,
        0,
        0,
        0,
        0,
        0.004999999999999985,
        -3.7748947079307955e-10,
        0,
        0,
        3.7748947079307955e-10,
        0.004999999999999985,
        0,
        0,
        0,
        0,
        1
      ],
      "name": "Caoon_shell",
      "extras": {
        "originalName": "Caoon_shell",
        "transformData": {
          "inheritType": 1,
          "eulerOrder": "ZYX",
          "rotation": [
            -0.000004325710697414086,
            0,
            0
          ],
          "parentMatrix": {
            "elements": [
              1,
              0,
              0,
              0,
              0,
              1,
              0,
              0,
              0,
              0,
              1,
              0,
              0,
              0,
              0,
              1
            ]
          },
          "parentMatrixWorld": {
            "elements": [
              1,
              0,
              0,
              0,
              0,
              1,
              0,
              0,
              0,
              0,
              1,
              0,
              0,
              0,
              0,
              1
            ]
          }
        }
      },
      "mesh": 0
    },
    {
      "matrix": [
        0.005,
        0,
        0,
        0,
        0,
        0.004999999999999985,
        -3.7748947079307955e-10,
        0,
        0,
        3.7748947079307955e-10,
        0.004999999999999985,
        0,
        0.00000762939453125,
        0,
        0,
        1
      ],
      "name": "wizard_shell",
      "extras": {
        "originalName": "wizard_shell",
        "transformData": {
          "inheritType": 1,
          "eulerOrder": "ZYX",
          "translation": [
            0.00000762939453125,
            0,
            0
          ],
          "rotation": [
            -0.000004325710697414086,
            0,
            0
          ],
          "parentMatrix": {
            "elements": [
              1,
              0,
              0,
              0,
              0,
              1,
              0,
              0,
              0,
              0,
              1,
              0,
              0,
              0,
              0,
              1
            ]
          },
          "parentMatrixWorld": {
            "elements": [
              1,
              0,
              0,
              0,
              0,
              1,
              0,
              0,
              0,
              0,
              1,
              0,
              0,
              0,
              0,
              1
            ]
          }
        }
      },
      "mesh": 1
    },
    {
      "matrix": [
        0.005,
        0,
        0,
        0,
        0,
        0.004999999999999985,
        -3.7748947079307955e-10,
        0,
        0,
        3.7748947079307955e-10,
        0.004999999999999985,
        0,
        0,
        0,
        0,
        1
      ],
      "name": "Archer_shell_LVL_4",
      "extras": {
        "originalName": "Archer_shell_LVL_4",
        "transformData": {
          "inheritType": 1,
          "eulerOrder": "ZYX",
          "rotation": [
            -0.000004325710697414086,
            0,
            0
          ],
          "parentMatrix": {
            "elements": [
              1,
              0,
              0,
              0,
              0,
              1,
              0,
              0,
              0,
              0,
              1,
              0,
              0,
              0,
              0,
              1
            ]
          },
          "parentMatrixWorld": {
            "elements": [
              1,
              0,
              0,
              0,
              0,
              1,
              0,
              0,
              0,
              0,
              1,
              0,
              0,
              0,
              0,
              1
            ]
          }
        }
      },
      "mesh": 2
    },
    {
      "matrix": [
        0.005,
        0,
        0,
        0,
        0,
        0.004999999999999985,
        -3.7748947079307955e-10,
        0,
        0,
        3.7748947079307955e-10,
        0.004999999999999985,
        0,
        0,
        35.11544418334961,
        0,
        1
      ],
      "name": "poison_shell",
      "extras": {
        "originalName": "poison_shell",
        "transformData": {
          "inheritType": 1,
          "eulerOrder": "ZYX",
          "translation": [
            0,
            35.11544418334961,
            0
          ],
          "rotation": [
            -0.000004325710697414086,
            0,
            0
          ],
          "parentMatrix": {
            "elements": [
              1,
              0,
              0,
              0,
              0,
              1,
              0,
              0,
              0,
              0,
              1,
              0,
              0,
              0,
              0,
              1
            ]
          },
          "parentMatrixWorld": {
            "elements": [
              1,
              0,
              0,
              0,
              0,
              1,
              0,
              0,
              0,
              0,
              1,
              0,
              0,
              0,
              0,
              1
            ]
          }
        }
      },
      "mesh": 3
    },
    {
      "matrix": [
        0.005,
        0,
        0,
        0,
        0,
        0.004999999999999985,
        -3.7748947079307955e-10,
        0,
        0,
        3.7748947079307955e-10,
        0.004999999999999985,
        0,
        0,
        0,
        0,
        1
      ],
      "name": "Archer_tower_LVL_1",
      "extras": {
        "originalName": "Archer_tower_LVL_1",
        "transformData": {
          "inheritType": 1,
          "eulerOrder": "ZYX",
          "rotation": [
            -0.000004325710697414086,
            0,
            0
          ],
          "parentMatrix": {
            "elements": [
              1,
              0,
              0,
              0,
              0,
              1,
              0,
              0,
              0,
              0,
              1,
              0,
              0,
              0,
              0,
              1
            ]
          },
          "parentMatrixWorld": {
            "elements": [
              1,
              0,
              0,
              0,
              0,
              1,
              0,
              0,
              0,
              0,
              1,
              0,
              0,
              0,
              0,
              1
            ]
          }
        }
      },
      "mesh": 4
    },
    {
      "matrix": [
        0.005,
        0,
        0,
        0,
        0,
        0.004999999999999985,
        -3.7748947079307955e-10,
        0,
        0,
        3.7748947079307955e-10,
        0.004999999999999985,
        0,
        0,
        0,
        0,
        1
      ],
      "name": "Ballista_shell",
      "extras": {
        "originalName": "Ballista_shell",
        "transformData": {
          "inheritType": 1,
          "eulerOrder": "ZYX",
          "rotation": [
            -0.000004325710697414086,
            0,
            0
          ],
          "parentMatrix": {
            "elements": [
              1,
              0,
              0,
              0,
              0,
              1,
              0,
              0,
              0,
              0,
              1,
              0,
              0,
              0,
              0,
              1
            ]
          },
          "parentMatrixWorld": {
            "elements": [
              1,
              0,
              0,
              0,
              0,
              1,
              0,
              0,
              0,
              0,
              1,
              0,
              0,
              0,
              0,
              1
            ]
          }
        }
      },
      "mesh": 5
    },
    {
      "matrix": [
        0.005,
        0,
        0,
        0,
        0,
        0.004999999999999985,
        -3.7748947079307955e-10,
        0,
        0,
        3.7748947079307955e-10,
        0.004999999999999985,
        0,
        0,
        0,
        0,
        1
      ],
      "name": "Archer_shell_LVL_2",
      "extras": {
        "originalName": "Archer_shell_LVL_2",
        "transformData": {
          "inheritType": 1,
          "eulerOrder": "ZYX",
          "rotation": [
            -0.000004325710697414086,
            0,
            0
          ],
          "parentMatrix": {
            "elements": [
              1,
              0,
              0,
              0,
              0,
              1,
              0,
              0,
              0,
              0,
              1,
              0,
              0,
              0,
              0,
              1
            ]
          },
          "parentMatrixWorld": {
            "elements": [
              1,
              0,
              0,
              0,
              0,
              1,
              0,
              0,
              0,
              0,
              1,
              0,
              0,
              0,
              0,
              1
            ]
          }
        }
      },
      "mesh": 6
    },
    {
      "extras": {
        "unitScaleFactor": 1
      },
      "children": [
        0,
        1,
        2,
        3,
        4,
        5,
        6
      ]
    }
  ],
  "bufferViews": [
    {
      "buffer": 0,
      "byteOffset": 0,
      "byteLength": 4032,
      "target": 34962,
      "byteStride": 12
    },
    {
      "buffer": 0,
      "byteOffset": 4032,
      "byteLength": 4032,
      "target": 34962,
      "byteStride": 12
    },
    {
      "buffer": 0,
      "byteOffset": 8064,
      "byteLength": 2688,
      "target": 34962,
      "byteStride": 8
    },
    {
      "buffer": 0,
      "byteOffset": 10752,
      "byteLength": 4032,
      "target": 34962,
      "byteStride": 12
    },
    {
      "buffer": 0,
      "byteOffset": 14784,
      "byteLength": 4032,
      "target": 34962,
      "byteStride": 12
    },
    {
      "buffer": 0,
      "byteOffset": 18816,
      "byteLength": 2688,
      "target": 34962,
      "byteStride": 8
    },
    {
      "buffer": 0,
      "byteOffset": 21504,
      "byteLength": 1836,
      "target": 34962,
      "byteStride": 12
    },
    {
      "buffer": 0,
      "byteOffset": 23340,
      "byteLength": 1836,
      "target": 34962,
      "byteStride": 12
    },
    {
      "buffer": 0,
      "byteOffset": 25176,
      "byteLength": 1224,
      "target": 34962,
      "byteStride": 8
    },
    {
      "buffer": 0,
      "byteOffset": 26400,
      "byteLength": 216,
      "target": 34962,
      "byteStride": 12
    },
    {
      "buffer": 0,
      "byteOffset": 26616,
      "byteLength": 216,
      "target": 34962,
      "byteStride": 12
    },
    {
      "buffer": 0,
      "byteOffset": 26832,
      "byteLength": 144,
      "target": 34962,
      "byteStride": 8
    },
    {
      "buffer": 0,
      "byteOffset": 26976,
      "byteLength": 2196,
      "target": 34962,
      "byteStride": 12
    },
    {
      "buffer": 0,
      "byteOffset": 29172,
      "byteLength": 2196,
      "target": 34962,
      "byteStride": 12
    },
    {
      "buffer": 0,
      "byteOffset": 31368,
      "byteLength": 1464,
      "target": 34962,
      "byteStride": 8
    },
    {
      "buffer": 0,
      "byteOffset": 32832,
      "byteLength": 1116,
      "target": 34962,
      "byteStride": 12
    },
    {
      "buffer": 0,
      "byteOffset": 33948,
      "byteLength": 1116,
      "target": 34962,
      "byteStride": 12
    },
    {
      "buffer": 0,
      "byteOffset": 35064,
      "byteLength": 744,
      "target": 34962,
      "byteStride": 8
    },
    {
      "buffer": 0,
      "byteOffset": 35808,
      "byteLength": 1764,
      "target": 34962,
      "byteStride": 12
    },
    {
      "buffer": 0,
      "byteOffset": 37572,
      "byteLength": 1764,
      "target": 34962,
      "byteStride": 12
    },
    {
      "buffer": 0,
      "byteOffset": 39336,
      "byteLength": 1176,
      "target": 34962,
      "byteStride": 8
    }
  ],
  "buffers": [
    {
      "byteLength": 40512,
      "uri": "data:application/octet-stream;base64,"
    }
  ],
  "accessors": [
    {
      "bufferView": 0,
      "componentType": 5126,
      "count": 336,
      "max": [
        28.504440307617188,
        28.504440307617188,
        28.504440307617188
      ],
      "min": [
        -28.504436492919922,
        -28.504440307617188,
        -28.504436492919922
      ],
      "type": "VEC3"
    },
    {
      "bufferView": 1,
      "componentType": 5126,
      "count": 336,
      "max": [
        0.9086633920669556,
        0.9775985479354858,
        0.9086634516716003
      ],
      "min": [
        -0.9086634516716003,
        -0.9775986075401306,
        -0.9086634516716003
      ],
      "type": "VEC3"
    },
    {
      "bufferView": 2,
      "componentType": 5126,
      "count": 336,
      "max": [
        0.3882017135620117,
        0.4353342056274414
      ],
      "min": [
        0.38549545407295227,
        0.4334636926651001
      ],
      "type": "VEC2"
    },
    {
      "bufferView": 3,
      "componentType": 5126,
      "count": 336,
      "max": [
        74.27552032470703,
        74.27562713623047,
        74.27552032470703
      ],
      "min": [
        -74.27552032470703,
        -74.27562713623047,
        -74.27552032470703
      ],
      "type": "VEC3"
    },
    {
      "bufferView": 4,
      "componentType": 5126,
      "count": 336,
      "max": [
        0.9086634516716003,
        0.9775973558425903,
        0.9086635708808899
      ],
      "min": [
        -0.9086635708808899,
        -0.9775983095169067,
        -0.9086635708808899
      ],
      "type": "VEC3"
    },
    {
      "bufferView": 5,
      "componentType": 5126,
      "count": 336,
      "max": [
        0.9807875156402588,
        0.30888429284095764
      ],
      "min": [
        0.9737381935119629,
        0.30430999398231506
      ],
      "type": "VEC2"
    },
    {
      "bufferView": 6,
      "componentType": 5126,
      "count": 153,
      "max": [
        14.083083152770996,
        218.5885009765625,
        21.395103454589844
      ],
      "min": [
        -14.083083152770996,
        -9.210228881784133e-7,
        -21.394994735717773
      ],
      "type": "VEC3"
    },
    {
      "bufferView": 7,
      "componentType": 5126,
      "count": 153,
      "max": [
        0.9547997713088989,
        0.5386768579483032,
        1
      ],
      "min": [
        -0.954800546169281,
        -1,
        -0.8200159072875977
      ],
      "type": "VEC3"
    },
    {
      "bufferView": 8,
      "componentType": 5126,
      "count": 153,
      "max": [
        0.17719101905822754,
        0.74660724401474
      ],
      "min": [
        0.16138067841529846,
        0.5478484630584717
      ],
      "type": "VEC2"
    },
    {
      "bufferView": 9,
      "componentType": 5126,
      "count": 18,
      "max": [
        72.0317153930664,
        81.21305084228516,
        72.03170776367188
      ],
      "min": [
        -72.0317153930664,
        -36.015869140625,
        -72.0317153930664
      ],
      "type": "VEC3"
    },
    {
      "bufferView": 10,
      "componentType": 5126,
      "count": 18,
      "max": [
        0.6485372185707092,
        0.3984960615634918,
        0.6485372185707092
      ],
      "min": [
        -0.648537278175354,
        -1,
        -0.648537278175354
      ],
      "type": "VEC3"
    },
    {
      "bufferView": 11,
      "componentType": 5126,
      "count": 18,
      "max": [
        0.5742519497871399,
        0.3080129027366638
      ],
      "min": [
        0.5688927173614502,
        0.3046983778476715
      ],
      "type": "VEC2"
    },
    {
      "bufferView": 12,
      "componentType": 5126,
      "count": 183,
      "max": [
        6.750473976135254,
        218.40087890625,
        21.906585693359375
      ],
      "min": [
        -6.750473976135254,
        -9.210228881784133e-7,
        -21.906461715698242
      ],
      "type": "VEC3"
    },
    {
      "bufferView": 13,
      "componentType": 5126,
      "count": 183,
      "max": [
        0.9852209091186523,
        0.8716703653335571,
        1
      ],
      "min": [
        -0.9806451797485352,
        -1,
        -0.9165546894073486
      ],
      "type": "VEC3"
    },
    {
      "bufferView": 14,
      "componentType": 5126,
      "count": 183,
      "max": [
        0.05098140239715576,
        0.7525100111961365
      ],
      "min": [
        0.03660973161458969,
        0.5501441955566406
      ],
      "type": "VEC2"
    },
    {
      "bufferView": 15,
      "componentType": 5126,
      "count": 93,
      "max": [
        12.529341697692871,
        273.02685546875,
        11.609936714172363
      ],
      "min": [
        -10.690258026123047,
        -0.0000022265658117248677,
        -11.609692573547363
      ],
      "type": "VEC3"
    },
    {
      "bufferView": 16,
      "componentType": 5126,
      "count": 93,
      "max": [
        0.8090188503265381,
        0.3319324553012848,
        0.9511623382568359
      ],
      "min": [
        -1,
        -1,
        -0.9511628150939941
      ],
      "type": "VEC3"
    },
    {
      "bufferView": 17,
      "componentType": 5126,
      "count": 93,
      "max": [
        0.7228811979293823,
        0.6661175489425659
      ],
      "min": [
        0.5956249833106995,
        0.5509982705116272
      ],
      "type": "VEC2"
    },
    {
      "bufferView": 18,
      "componentType": 5126,
      "count": 147,
      "max": [
        14.285270690917969,
        217.96209716796875,
        17.760082244873047
      ],
      "min": [
        -14.285235404968262,
        -0.1459968388080597,
        -17.760042190551758
      ],
      "type": "VEC3"
    },
    {
      "bufferView": 19,
      "componentType": 5126,
      "count": 147,
      "max": [
        0.9625964760780334,
        0.5830463171005249,
        0.9992088079452515
      ],
      "min": [
        -0.9380120038986206,
        -1,
        -0.831765353679657
      ],
      "type": "VEC3"
    },
    {
      "bufferView": 20,
      "componentType": 5126,
      "count": 147,
      "max": [
        0.10275527834892273,
        0.752628743648529
      ],
      "min": [
        0.08572539687156677,
        0.549238383769989
      ],
      "type": "VEC2"
    }
  ],
  "materials": [
    {
      "pbrMetallicRoughness": {
        "metallicFactor": 0.5,
        "roughnessFactor": 0.5,
        "baseColorTexture": {
          "index": 0,
          "texCoord": 0
        }
      },
      "name": "Elves_tower_map.005"
    },
    {
      "pbrMetallicRoughness": {
        "metallicFactor": 0.5,
        "roughnessFactor": 0.5,
        "baseColorTexture": {
          "index": 1,
          "texCoord": 0
        }
      },
      "name": "Elves_tower_map.007"
    },
    {
      "pbrMetallicRoughness": {
        "metallicFactor": 0.5,
        "roughnessFactor": 0.5,
        "baseColorTexture": {
          "index": 2,
          "texCoord": 0
        }
      },
      "name": "Elves_tower_map.003"
    },
    {
      "pbrMetallicRoughness": {
        "metallicFactor": 0.5,
        "roughnessFactor": 0.5,
        "baseColorTexture": {
          "index": 3,
          "texCoord": 0
        }
      },
      "name": "Elves_tower_map.006"
    },
    {
      "pbrMetallicRoughness": {
        "metallicFactor": 0.5,
        "roughnessFactor": 0.5,
        "baseColorTexture": {
          "index": 4,
          "texCoord": 0
        }
      },
      "name": "Elves_tower_map"
    },
    {
      "pbrMetallicRoughness": {
        "metallicFactor": 0.5,
        "roughnessFactor": 0.5,
        "baseColorTexture": {
          "index": 5,
          "texCoord": 0
        }
      },
      "name": "Elves_tower_map.004"
    },
    {
      "pbrMetallicRoughness": {
        "metallicFactor": 0.5,
        "roughnessFactor": 0.5,
        "baseColorTexture": {
          "index": 6,
          "texCoord": 0
        }
      },
      "name": "Elves_tower_map.001"
    }
  ],
  "textures": [
    {
      "sampler": 0,
      "source": 0
    },
    {
      "sampler": 1,
      "source": 1
    },
    {
      "sampler": 2,
      "source": 2
    },
    {
      "sampler": 3,
      "source": 3
    },
    {
      "sampler": 4,
      "source": 4
    },
    {
      "sampler": 5,
      "source": 5
    },
    {
      "sampler": 6,
      "source": 6
    }
  ],
  "samplers": [
    {
      "magFilter": 9729,
      "minFilter": 9987,
      "wrapS": 33071,
      "wrapT": 33071
    },
    {
      "magFilter": 9729,
      "minFilter": 9987,
      "wrapS": 33071,
      "wrapT": 33071
    },
    {
      "magFilter": 9729,
      "minFilter": 9987,
      "wrapS": 33071,
      "wrapT": 33071
    },
    {
      "magFilter": 9729,
      "minFilter": 9987,
      "wrapS": 33071,
      "wrapT": 33071
    },
    {
      "magFilter": 9729,
      "minFilter": 9987,
      "wrapS": 33071,
      "wrapT": 33071
    },
    {
      "magFilter": 9729,
      "minFilter": 9987,
      "wrapS": 33071,
      "wrapT": 33071
    },
    {
      "magFilter": 9729,
      "minFilter": 9987,
      "wrapS": 33071,
      "wrapT": 33071
    }
  ],
  "images": [
    {
      "mimeType": "image/png",
      "uri": "data:image/png;base64,"
    },
    {
      "mimeType": "image/png",
      "uri": "data:image/png;base64,"
    },
    {
      "mimeType": "image/png",
      "uri": "data:image/png;base64,"
    },
    {
      "mimeType": "image/png",
      "uri": "data:image/png;base64,"
    },
    {
      "mimeType": "image/png",
      "uri": "data:image/png;base64,"
    },
    {
      "mimeType": "image/png",
      "uri": "data:image/png;base64,"
    },
    {
      "mimeType": "image/png",
      "uri": "data:image/png;base64,"
    }
  ],
  "meshes": [
    {
      "primitives": [
        {
          "mode": 4,
          "attributes": {
            "POSITION": 0,
            "NORMAL": 1,
            "TEXCOORD_0": 2
          },
          "material": 0
        }
      ]
    },
    {
      "primitives": [
        {
          "mode": 4,
          "attributes": {
            "POSITION": 3,
            "NORMAL": 4,
            "TEXCOORD_0": 5
          },
          "material": 1
        }
      ]
    },
    {
      "primitives": [
        {
          "mode": 4,
          "attributes": {
            "POSITION": 6,
            "NORMAL": 7,
            "TEXCOORD_0": 8
          },
          "material": 2
        }
      ]
    },
    {
      "primitives": [
        {
          "mode": 4,
          "attributes": {
            "POSITION": 9,
            "NORMAL": 10,
            "TEXCOORD_0": 11
          },
          "material": 3
        }
      ]
    },
    {
      "primitives": [
        {
          "mode": 4,
          "attributes": {
            "POSITION": 12,
            "NORMAL": 13,
            "TEXCOORD_0": 14
          },
          "material": 4
        }
      ]
    },
    {
      "primitives": [
        {
          "mode": 4,
          "attributes": {
            "POSITION": 15,
            "NORMAL": 16,
            "TEXCOORD_0": 17
          },
          "material": 5
        }
      ]
    },
    {
      "primitives": [
        {
          "mode": 4,
          "attributes": {
            "POSITION": 18,
            "NORMAL": 19,
            "TEXCOORD_0": 20
          },
          "material": 6
        }
      ]
    }
  ]
}