{
    "asset": {
        "version": "2.0",
        "generator": "THREE.GLTFExporter"
    },
    "scenes": [
        {
            "name": "Scene",
            "nodes": [3]
        }
    ],
    "scene": 0,
    "nodes": [
        {
            "name": "Archer_Tower_LVL_2",
            "extras": {
                "name": "Archer_Tower_LVL_2",
                "originalName": "Archer_Tower_LVL_2",
                "transformData": {
                    "inheritType": 1,
                    "eulerOrder": "ZYX",
                    "parentMatrix": {
                        "elements": [0.005, 0, 0, 0, 0, 0.005, 0, 0, 0, 0, 0.005, 0, 0, 0, 0, 1]
                    },
                    "parentMatrixWorld": {
                        "elements": [0.005, 0, 0, 0, 0, 0.005, 0, 0, 0, 0, 0.005, 0, 0, 0, 0, 1]
                    }
                }
            },
            "mesh": 0
        },
        {
            "matrix": [0.005, 0, 0, 0, 0, 0.005, 0, 0, 0, 0, 0.005, 0, 0, 0, 0, 1],
            "extras": {
                "unitScaleFactor": 1
            },
            "children": [0]
        },
        {
            "name": "Archer_Tower_LVL_2",
            "extras": {
                "name": "Archer_Tower_LVL_2"
            },
            "children": [1]
        },
        {
            "name": "Archer_Tower_LVL_2",
            "children": [2]
        }
    ],
    "bufferViews": [
        {
            "buffer": 0,
            "byteOffset": 0,
            "byteLength": 78264,
            "target": 34962,
            "byteStride": 12
        },
        {
            "buffer": 0,
            "byteOffset": 78264,
            "byteLength": 78264,
            "target": 34962,
            "byteStride": 12
        },
        {
            "buffer": 0,
            "byteOffset": 156528,
            "byteLength": 52176,
            "target": 34962,
            "byteStride": 8
        }
    ],
    "buffers": [
        {
            "byteLength": 208704,
            "uri": "data:application/octet-stream;base64,"
        }
    ],
    "accessors": [
        {
            "bufferView": 0,
            "componentType": 5126,
            "count": 6522,
            "max": [297.6636962890625, 1492.2862548828125, 297.66400146484375],
            "min": [-297.6636962890625, -2.212876558303833, -297.663330078125],
            "type": "VEC3"
        },
        {
            "bufferView": 1,
            "componentType": 5126,
            "count": 6522,
            "max": [1, 1, 1],
            "min": [-1, -1, -1],
            "type": "VEC3"
        },
        {
            "bufferView": 2,
            "componentType": 5126,
            "count": 6522,
            "max": [0.10516087710857391, 0.9678873419761658],
            "min": [0.05876808986067772, 0.021806716918945312],
            "type": "VEC2"
        }
    ],
    "materials": [
        {
            "pbrMetallicRoughness": {
                "metallicFactor": 0.25,
                "roughnessFactor": 0.75,
                "baseColorTexture": {
                    "index": 0,
                    "texCoord": 0
                }
            }
        }
    ],
    "textures": [
        {
            "sampler": 0,
            "source": 0
        }
    ],
    "samplers": [
        {
            "magFilter": 9729,
            "minFilter": 9987,
            "wrapS": 33071,
            "wrapT": 33071
        }
    ],
    "images": [
        {
            "mimeType": "image/png",
            "uri": "data:image/png;base64,"
        }
    ],
    "meshes": [
        {
            "primitives": [
                {
                    "mode": 4,
                    "attributes": {
                        "POSITION": 0,
                        "NORMAL": 1,
                        "TEXCOORD_0": 2
                    },
                    "material": 0
                }
            ]
        }
    ]
}
