{
    "asset": {
        "version": "2.0",
        "generator": "THREE.GLTFExporter"
    },
    "scenes": [
        {
            "name": "Scene",
            "nodes": [4]
        }
    ],
    "scene": 0,
    "nodes": [
        {
            "name": "Ballista_Tower_LVL_1_Body",
            "extras": {
                "name": "Ballista_Tower_LVL_1_Body"
            },
            "mesh": 0
        },
        {
            "name": "Ballista_Tower_LVL_1_Head",
            "extras": {
                "name": "Ballista_Tower_LVL_1_Head"
            },
            "mesh": 1
        },
        {
            "matrix": [
                0.004999999888241291, 0, 0, 0, 0, 0.004999999888241291, 0, 0, 0, 0, 0.004999999888241291, 0, 0, 0, 0, 1
            ],
            "name": "Ballista_Tower_LVL_1_1",
            "extras": {
                "name": "Ballista_Tower_LVL_1"
            },
            "children": [0, 1]
        },
        {
            "name": "Ballista_Tower_LVL_1",
            "extras": {
                "name": "Ballista_Tower_LVL_1"
            },
            "children": [2]
        },
        {
            "name": "Ballista_Tower_LVL_1",
            "children": [3]
        }
    ],
    "bufferViews": [
        {
            "buffer": 0,
            "byteOffset": 0,
            "byteLength": 17712,
            "target": 34962,
            "byteStride": 12
        },
        {
            "buffer": 0,
            "byteOffset": 17712,
            "byteLength": 17712,
            "target": 34962,
            "byteStride": 12
        },
        {
            "buffer": 0,
            "byteOffset": 35424,
            "byteLength": 11808,
            "target": 34962,
            "byteStride": 8
        },
        {
            "buffer": 0,
            "byteOffset": 47232,
            "byteLength": 2952,
            "target": 34963
        },
        {
            "buffer": 0,
            "byteOffset": 50184,
            "byteLength": 33984,
            "target": 34962,
            "byteStride": 12
        },
        {
            "buffer": 0,
            "byteOffset": 84168,
            "byteLength": 33984,
            "target": 34962,
            "byteStride": 12
        },
        {
            "buffer": 0,
            "byteOffset": 118152,
            "byteLength": 22656,
            "target": 34962,
            "byteStride": 8
        },
        {
            "buffer": 0,
            "byteOffset": 140808,
            "byteLength": 5664,
            "target": 34963
        }
    ],
    "buffers": [
        {
            "byteLength": 146472,
            "uri": "data:application/octet-stream;base64,"
        }
    ],
    "accessors": [
        {
            "bufferView": 0,
            "componentType": 5126,
            "count": 1476,
            "max": [252.5584259033203, 1063.5830078125, 322.2406005859375],
            "min": [-250.8269805908203, -4.528738498687744, -245.1364288330078],
            "type": "VEC3"
        },
        {
            "bufferView": 1,
            "componentType": 5126,
            "count": 1476,
            "max": [1, 0.9873214364051819, 1],
            "min": [-1, -0.988381028175354, -1],
            "type": "VEC3"
        },
        {
            "bufferView": 2,
            "componentType": 5126,
            "count": 1476,
            "max": [0.2452874332666397, 0.975561261177063],
            "min": [0.19297784566879272, 0.021408140659332275],
            "type": "VEC2"
        },
        {
            "bufferView": 3,
            "componentType": 5123,
            "count": 1476,
            "max": [1475],
            "min": [0],
            "type": "SCALAR"
        },
        {
            "bufferView": 4,
            "componentType": 5126,
            "count": 2832,
            "max": [274.23046875, 1404.78466796875, 267.3154602050781],
            "min": [-272.4990234375, 994.1618041992188, -267.3700256347656],
            "type": "VEC3"
        },
        {
            "bufferView": 5,
            "componentType": 5126,
            "count": 2832,
            "max": [1, 1, 1],
            "min": [-1, -1, -1],
            "type": "VEC3"
        },
        {
            "bufferView": 6,
            "componentType": 5126,
            "count": 2832,
            "max": [0.24466606974601746, 0.8664951920509338],
            "min": [0.20139628648757935, 0.022291898727416992],
            "type": "VEC2"
        },
        {
            "bufferView": 7,
            "componentType": 5123,
            "count": 2832,
            "max": [2831],
            "min": [0],
            "type": "SCALAR"
        }
    ],
    "materials": [
        {
            "pbrMetallicRoughness": {
                "metallicFactor": 0.25,
                "roughnessFactor": 0.75,
                "baseColorTexture": {
                    "index": 0,
                    "texCoord": 0
                }
            }
        },
        {
            "pbrMetallicRoughness": {
                "metallicFactor": 0.25,
                "roughnessFactor": 0.75,
                "baseColorTexture": {
                    "index": 1,
                    "texCoord": 0
                }
            }
        }
    ],
    "textures": [
        {
            "sampler": 0,
            "source": 0
        },
        {
            "sampler": 1,
            "source": 1
        }
    ],
    "samplers": [
        {
            "magFilter": 9729,
            "minFilter": 9987,
            "wrapS": 33071,
            "wrapT": 33071
        },
        {
            "magFilter": 9729,
            "minFilter": 9987,
            "wrapS": 33071,
            "wrapT": 33071
        }
    ],
    "images": [
        {
            "mimeType": "image/png",
            "uri": "data:image/png;base64,"
        },
        {
            "mimeType": "image/png",
            "uri": "data:image/png;base64,"
        }
    ],
    "meshes": [
        {
            "primitives": [
                {
                    "mode": 4,
                    "attributes": {
                        "POSITION": 0,
                        "NORMAL": 1,
                        "TEXCOORD_0": 2
                    },
                    "indices": 3,
                    "material": 0
                }
            ]
        },
        {
            "primitives": [
                {
                    "mode": 4,
                    "attributes": {
                        "POSITION": 4,
                        "NORMAL": 5,
                        "TEXCOORD_0": 6
                    },
                    "indices": 7,
                    "material": 1
                }
            ]
        }
    ]
}
