{
    "asset": {
        "version": "2.0",
        "generator": "THREE.GLTFExporter"
    },
    "scenes": [
        {
            "name": "Scene",
            "nodes": [3]
        }
    ],
    "scene": 0,
    "nodes": [
        {
            "matrix": [
                0.004999999888241291, 0, 0, 0, 0, 0.004999999888241291, 0, 0, 0, 0, 0.004999999888241291, 0, 0, 0, 0, 1
            ],
            "name": "Ballista_Tower_LVL_3_Body",
            "extras": {
                "name": "Ballista_Tower_LVL_3_Body"
            },
            "mesh": 0
        },
        {
            "matrix": [
                0.004999999888241291, 0, 0, 0, 0, 0.004999999888241291, 0, 0, 0, 0, 0.004999999888241291, 0, 0, 0, 0, 1
            ],
            "name": "Ballista_Tower_LVL_3_Head",
            "extras": {
                "name": "Ballista_Tower_LVL_3_Head"
            },
            "mesh": 1
        },
        {
            "name": "Ballista_Tower_LVL_3",
            "extras": {
                "name": "Ballista_Tower_LVL_3"
            },
            "children": [0, 1]
        },
        {
            "name": "Ballista_Tower_LVL_3",
            "children": [2]
        }
    ],
    "bufferViews": [
        {
            "buffer": 0,
            "byteOffset": 0,
            "byteLength": 55908,
            "target": 34962,
            "byteStride": 12
        },
        {
            "buffer": 0,
            "byteOffset": 55908,
            "byteLength": 55908,
            "target": 34962,
            "byteStride": 12
        },
        {
            "buffer": 0,
            "byteOffset": 111816,
            "byteLength": 37272,
            "target": 34962,
            "byteStride": 8
        },
        {
            "buffer": 0,
            "byteOffset": 149088,
            "byteLength": 9320,
            "target": 34963
        },
        {
            "buffer": 0,
            "byteOffset": 158408,
            "byteLength": 35820,
            "target": 34962,
            "byteStride": 12
        },
        {
            "buffer": 0,
            "byteOffset": 194228,
            "byteLength": 35820,
            "target": 34962,
            "byteStride": 12
        },
        {
            "buffer": 0,
            "byteOffset": 230048,
            "byteLength": 23880,
            "target": 34962,
            "byteStride": 8
        },
        {
            "buffer": 0,
            "byteOffset": 253928,
            "byteLength": 5972,
            "target": 34963
        }
    ],
    "buffers": [
        {
            "byteLength": 259900,
            "uri": "data:application/octet-stream;base64,"
        }
    ],
    "accessors": [
        {
            "bufferView": 0,
            "componentType": 5126,
            "count": 4659,
            "max": [331.1273193359375, 1092.8843994140625, 331.1280822753906],
            "min": [-331.1273193359375, -7.980753421783447, -331.12640380859375],
            "type": "VEC3"
        },
        {
            "bufferView": 1,
            "componentType": 5126,
            "count": 4659,
            "max": [1, 1, 1],
            "min": [-1, -1, -1],
            "type": "VEC3"
        },
        {
            "bufferView": 2,
            "componentType": 5126,
            "count": 4659,
            "max": [0.29935064911842346, 0.975561261177063],
            "min": [0.2613796591758728, 0.021408140659332275],
            "type": "VEC2"
        },
        {
            "bufferView": 3,
            "componentType": 5123,
            "count": 4659,
            "max": [4658],
            "min": [0],
            "type": "SCALAR"
        },
        {
            "bufferView": 4,
            "componentType": 5126,
            "count": 2985,
            "max": [265.9469909667969, 1404.78466796875, 265.9477844238281],
            "min": [-265.9469909667969, 1061.6544189453125, -268.6780700683594],
            "type": "VEC3"
        },
        {
            "bufferView": 5,
            "componentType": 5126,
            "count": 2985,
            "max": [1, 1, 1],
            "min": [-1, -1, -1],
            "type": "VEC3"
        },
        {
            "bufferView": 6,
            "componentType": 5126,
            "count": 2985,
            "max": [0.2924501895904541, 0.8568291664123535],
            "min": [0.26580581068992615, 0.11218804121017456],
            "type": "VEC2"
        },
        {
            "bufferView": 7,
            "componentType": 5123,
            "count": 2985,
            "max": [2984],
            "min": [0],
            "type": "SCALAR"
        }
    ],
    "materials": [
        {
            "pbrMetallicRoughness": {
                "metallicFactor": 0.25,
                "roughnessFactor": 0.75,
                "baseColorTexture": {
                    "index": 0,
                    "texCoord": 0
                }
            }
        },
        {
            "pbrMetallicRoughness": {
                "metallicFactor": 0.25,
                "roughnessFactor": 0.75,
                "baseColorTexture": {
                    "index": 1,
                    "texCoord": 0
                }
            }
        }
    ],
    "textures": [
        {
            "sampler": 0,
            "source": 0
        },
        {
            "sampler": 1,
            "source": 1
        }
    ],
    "samplers": [
        {
            "magFilter": 9729,
            "minFilter": 9987,
            "wrapS": 33071,
            "wrapT": 33071
        },
        {
            "magFilter": 9729,
            "minFilter": 9987,
            "wrapS": 33071,
            "wrapT": 33071
        }
    ],
    "images": [
        {
            "mimeType": "image/png",
            "uri": "data:image/png;base64,"
        },
        {
            "mimeType": "image/png",
            "uri": "data:image/png;base64,"
        }
    ],
    "meshes": [
        {
            "primitives": [
                {
                    "mode": 4,
                    "attributes": {
                        "POSITION": 0,
                        "NORMAL": 1,
                        "TEXCOORD_0": 2
                    },
                    "indices": 3,
                    "material": 0
                }
            ]
        },
        {
            "primitives": [
                {
                    "mode": 4,
                    "attributes": {
                        "POSITION": 4,
                        "NORMAL": 5,
                        "TEXCOORD_0": 6
                    },
                    "indices": 7,
                    "material": 1
                }
            ]
        }
    ]
}
