<svg xmlns="http://www.w3.org/2000/svg" width="80" height="80" viewBox="0 0 80 80" id="gear">
    <path fill="#ffffff" fill-rule="evenodd"
        d="M436 433h-5.4a2 2 0 0 0-1.975 1.682 28.712 28.712 0 0 1-5.083 12.242 2 2 0 0 0 .2 2.59l3.825 3.826-4.231 4.232-3.826-3.826a2 2 0 0 0-2.58-.211 28.4 28.4 0 0 1-12.245 5.069A2 2 0 0 0 403 460.58V466h-6v-5.42a2 2 0 0 0-1.689-1.976 28.416 28.416 0 0 1-12.246-5.069 2 2 0 0 0-2.58.211l-3.825 3.826-4.232-4.232 3.826-3.826a2 2 0 0 0 .2-2.59 28.712 28.712 0 0 1-5.084-12.242A2 2 0 0 0 369.4 433H364v-6h5.4a2 2 0 0 0 1.975-1.682 28.712 28.712 0 0 1 5.084-12.242 2 2 0 0 0-.2-2.59l-3.826-3.826 4.232-4.232 3.825 3.826a2 2 0 0 0 2.58.211 28.416 28.416 0 0 1 12.246-5.069A2 2 0 0 0 397 399.42V394h6v5.42a2 2 0 0 0 1.689 1.976 28.4 28.4 0 0 1 12.245 5.069 2 2 0 0 0 2.58-.211l3.826-3.826 4.231 4.232-3.825 3.826a2 2 0 0 0-.2 2.59 28.712 28.712 0 0 1 5.083 12.242A2 2 0 0 0 430.6 427h5.4v6zm-36-18a15 15 0 1 1-15 15 15 15 0 0 1 15-15z"
        opacity=".1" transform="translate(-360 -390)"></path>
    <path fill="#ffffff" fill-rule="evenodd"
        d="M400 413a17 17 0 0 0-5.5.911 2 2 0 0 0 1.293 3.785 13 13 0 1 1-6.878 5.514 2 2 0 0 0-3.408-2.092A17 17 0 1 0 400 413zm38 10h-5.743a32.783 32.783 0 0 0-4.508-10.86l4.064-4.066a2 2 0 0 0 0-2.828l-7.059-7.06a2 2 0 0 0-2.828 0l-4.07 4.069a32.242 32.242 0 0 0-10.856-4.5V392a2 2 0 0 0-2-2h-10a2 2 0 0 0-2 2v5.756a32.25 32.25 0 0 0-10.856 4.5l-4.07-4.069a2 2 0 0 0-2.828 0l-7.06 7.06a2 2 0 0 0 0 2.828l4.065 4.066A32.773 32.773 0 0 0 367.742 423H362a2 2 0 0 0-2 2v10a2 2 0 0 0 2 2h5.742a32.773 32.773 0 0 0 4.509 10.86l-4.065 4.066a2 2 0 0 0 0 2.828l7.06 7.06a2.058 2.058 0 0 0 2.828 0l4.07-4.069a32.25 32.25 0 0 0 10.856 4.5V468a2 2 0 0 0 2 2h10a2 2 0 0 0 2-2v-5.756a32.242 32.242 0 0 0 10.856-4.5l4.07 4.069a2.058 2.058 0 0 0 2.828 0l7.059-7.06a2 2 0 0 0 0-2.828l-4.064-4.066A32.783 32.783 0 0 0 432.257 437H438a2 2 0 0 0 2-2v-10a2 2 0 0 0-2-2zm-2 10h-5.4a2 2 0 0 0-1.975 1.682 28.712 28.712 0 0 1-5.083 12.242 2 2 0 0 0 .2 2.59l3.825 3.826-4.231 4.232-3.826-3.826a2 2 0 0 0-2.58-.211 28.4 28.4 0 0 1-12.245 5.069A2 2 0 0 0 403 460.58V466h-6v-5.42a2 2 0 0 0-1.689-1.976 28.416 28.416 0 0 1-12.246-5.069 2 2 0 0 0-2.58.211l-3.825 3.826-4.232-4.232 3.826-3.826a2 2 0 0 0 .2-2.59 28.712 28.712 0 0 1-5.084-12.242A2 2 0 0 0 369.4 433H364v-6h5.4a2 2 0 0 0 1.975-1.682 28.712 28.712 0 0 1 5.084-12.242 2 2 0 0 0-.2-2.59l-3.826-3.826 4.232-4.232 3.825 3.826a2 2 0 0 0 2.58.211 28.416 28.416 0 0 1 12.246-5.069A2 2 0 0 0 397 399.42V394h6v5.42a2 2 0 0 0 1.689 1.976 28.4 28.4 0 0 1 12.245 5.069 2 2 0 0 0 2.58-.211l3.826-3.826 4.231 4.232-3.825 3.826a2 2 0 0 0-.2 2.59 28.712 28.712 0 0 1 5.083 12.242A2 2 0 0 0 430.6 427h5.4v6z"
        transform="translate(-360 -390)"></path>
    <!-- <path fill="#3f4662" fill-rule="evenodd" /> -->
</svg>