<svg xmlns="http://www.w3.org/2000/svg" data-name="Filled outline" viewBox="0 0 64 64" id="fighting-game">
<path fill="#c4e6ff" d="M4.578 11.202 3 3l8.202 1.578 35.887 32.575-9.936 9.936L4.578 11.202z"></path><path fill="#1f2b54" d="m55.783 51.644-4.14 4.14-8.28-8.28 4.14-4.14z"></path><rect width="21.078" height="4.684" x="33.238" y="41.435" fill="#2c3a64" rx="2.342" transform="rotate(135 43.777 43.777)"></rect><rect width="14.052" height="4.684" x="48.344" y="53.028" fill="#2c3a64" rx="2.342" transform="rotate(135 55.37 55.37)"></rect><path fill="#e2f3ff" d="M52.822 4.578 61.024 3l-1.578 8.202-32.575 35.887-9.937-9.936L52.822 4.578z"></path><path fill="#1f2b54" d="m12.38 55.782-4.14-4.14 8.28-8.28 4.14 4.14z"></path><rect width="21.078" height="4.684" x="9.707" y="41.435" fill="#2c3a64" rx="2.342" transform="rotate(-135 20.247 43.777)"></rect><rect width="14.052" height="4.684" x="1.628" y="53.028" fill="#2c3a64" rx="2.342" transform="rotate(-135 8.654 55.37)"></rect><g fill="#1e120b"><path d="m56.319 49.7-.535.535-6.867-6.867 3.02-3.019a3.345 3.345 0 1 0-4.881-4.571l-4.694-4.262 17.824-19.642a1 1 0 0 0 .242-.483l1.578-8.2a1.007 1.007 0 0 0-1.171-1.171L52.633 3.6a1 1 0 0 0-.483.242L32.012 22.117 11.874 3.838a1 1 0 0 0-.483-.242l-8.2-1.578a1.006 1.006 0 0 0-1.173 1.171l1.578 8.2a1 1 0 0 0 .242.483l17.825 19.639-4.695 4.262a3.345 3.345 0 1 0-4.881 4.571l3.019 3.019L8.24 50.23l-.535-.53a3.421 3.421 0 0 0-4.726 0 3.346 3.346 0 0 0 0 4.726L9.6 61.045a3.342 3.342 0 0 0 4.727-4.726l-.536-.535 6.867-6.867 3.019 3.02a3.345 3.345 0 1 0 4.571-4.881l3.761-4.143 3.761 4.143a3.345 3.345 0 1 0 4.571 4.881l3.019-3.02 6.867 6.867-.535.535a3.342 3.342 0 0 0 4.726 4.726l6.624-6.624a3.346 3.346 0 0 0 0-4.726 3.421 3.421 0 0 0-4.723.005ZM45.64 37.188l-3.519 3.519-4.249-4.249 3.145-3.466ZM5.507 10.738 4.261 4.261l6.477 1.246 19.787 17.96-7.382 6.7Zm7.409 48.892a1.345 1.345 0 0 1-1.9 0l-6.623-6.623a1.342 1.342 0 0 1 1.9-1.9l6.625 6.624a1.345 1.345 0 0 1-.002 1.899Zm-.536-5.26-2.726-2.726 6.867-6.867 2.726 2.723Zm14.612-3.848a1.343 1.343 0 0 1-1.9 0L13.5 38.93a1.342 1.342 0 1 1 1.9-1.9l11.592 11.595a1.347 1.347 0 0 1 0 1.897Zm-.156-4.881-3.52-3.521 6.392-6.414a1 1 0 0 0-1.416-1.412L21.9 40.706l-3.517-3.518 34.9-31.681 6.477-1.246-1.246 6.477Zm6.526-4.216 3.164-3.485 4.181 4.181-3.519 3.519Zm5.568 9.1a1.342 1.342 0 0 1-1.9-1.9l11.595-11.593a1.342 1.342 0 1 1 1.9 1.9Zm5.847-3.025 2.723-2.723 6.867 6.867-2.723 2.726ZM59.631 53l-6.624 6.624a1.342 1.342 0 0 1-1.9-1.9s4.986-4.951 6.624-6.624a1.342 1.342 0 1 1 1.9 1.9Z"></path><path d="M26.25 2.469a1 1 0 0 0-.366 1.366l2.5 4.33a1 1 0 1 0 1.732-1l-2.5-4.33a1 1 0 0 0-1.366-.366zm10.134.366-2.5 4.33a1 1 0 1 0 1.732 1l2.5-4.33a1 1 0 0 0-1.732-1zm24.281 19.549-4.33 2.5a1 1 0 1 0 1 1.732l4.33-2.5a1 1 0 0 0-1-1.732zm1 10.5-4.33-2.5a1 1 0 1 0-1 1.732l4.33 2.5a1 1 0 0 0 1-1.732zm-58.33 1.732 4.33-2.5a1 1 0 1 0-1-1.732l-4.33 2.5a1 1 0 0 0 1 1.732zm-1-10.5 4.33 2.5a1 1 0 1 0 1-1.732l-4.33-2.5a1 1 0 0 0-1 1.732z"></path>
<circle cx="32" cy="32" r="1"></circle></g>
</svg>