{
    "asset": {
        "version": "2.0",
        "generator": "THREE.GLTFExporter"
    },
    "scenes": [
        {
            "name": "Scene",
            "nodes": [1]
        }
    ],
    "scene": 0,
    "nodes": [
        {
            "matrix": [
                1, 0, 0, 0, 0, -1.6292067961387602e-7, -0.9999999999999868, 0, 0, 0.9999999999999868,
                -1.6292067961387602e-7, 0, 0, 0, 0, 1
            ],
            "name": "CactusFlowers_2",
            "extras": {
                "originalName": "CactusFlowers_2",
                "transformData": {
                    "inheritType": 1,
                    "eulerOrder": "ZYX",
                    "rotation": [-90.00000933466734, 0, 0],
                    "scale": [100, 100, 100],
                    "parentMatrix": {
                        "elements": [1, 0, 0, 0, 0, 1, 0, 0, 0, 0, 1, 0, 0, 0, 0, 1]
                    },
                    "parentMatrixWorld": {
                        "elements": [1, 0, 0, 0, 0, 1, 0, 0, 0, 0, 1, 0, 0, 0, 0, 1]
                    }
                }
            },
            "mesh": 0
        },
        {
            "extras": {
                "unitScaleFactor": 1
            },
            "children": [0]
        }
    ],
    "bufferViews": [
        {
            "buffer": 0,
            "byteOffset": 0,
            "byteLength": 53568,
            "target": 34962,
            "byteStride": 12
        },
        {
            "buffer": 0,
            "byteOffset": 53568,
            "byteLength": 53568,
            "target": 34962,
            "byteStride": 12
        },
        {
            "buffer": 0,
            "byteOffset": 107136,
            "byteLength": 4320,
            "target": 34963
        },
        {
            "buffer": 0,
            "byteOffset": 111456,
            "byteLength": 4608,
            "target": 34963
        }
    ],
    "buffers": [
        {
            "byteLength": 116064,
            "uri": "data:application/octet-stream;base64,"
        }
    ],
    "accessors": [
        {
            "bufferView": 0,
            "componentType": 5126,
            "count": 4464,
            "max": [0.4867335855960846, 0.6515174508094788, 1.9282573461532593],
            "min": [-0.2786322236061096, -0.6317573189735413, -0.010726936161518097],
            "type": "VEC3"
        },
        {
            "bufferView": 1,
            "componentType": 5126,
            "count": 4464,
            "max": [0.9989662170410156, 0.9999415874481201, 0.9926258325576782],
            "min": [-0.9989662170410156, -0.9996501207351685, -0.9927324056625366],
            "type": "VEC3"
        },
        {
            "bufferView": 2,
            "componentType": 5123,
            "count": 2160,
            "max": [2159],
            "min": [0],
            "type": "SCALAR"
        },
        {
            "bufferView": 3,
            "componentType": 5123,
            "count": 2304,
            "max": [4463],
            "min": [2160],
            "type": "SCALAR"
        }
    ],
    "materials": [
        {
            "pbrMetallicRoughness": {
                "baseColorFactor": [0.057805430183792694, 0.21952619971859377, 0.025186859622305935, 1],
                "metallicFactor": 0.25,
                "roughnessFactor": 0.75
            },
            "emissiveFactor": [0.008183235221464101, 0.02014355465886372, 0.0048820304377114295],
            "name": "Green"
        },
        {
            "pbrMetallicRoughness": {
                "baseColorFactor": [0.18492672820678924, 0.01217013828087892, 0.06236471021484273, 1],
                "metallicFactor": 0.25,
                "roughnessFactor": 0.75
            },
            "emissiveFactor": [0.18492672820678924, 0.01217013828087892, 0.06236471021484273],
            "name": "Pink"
        }
    ],
    "meshes": [
        {
            "primitives": [
                {
                    "mode": 4,
                    "attributes": {
                        "POSITION": 0,
                        "NORMAL": 1
                    },
                    "indices": 2,
                    "material": 0
                },
                {
                    "mode": 4,
                    "attributes": {
                        "POSITION": 0,
                        "NORMAL": 1
                    },
                    "indices": 3,
                    "material": 1
                }
            ]
        }
    ]
}
