{
  "asset": {
    "version": "2.0",
    "generator": "THREE.GLTFExporter"
  },
  "scenes": [
    {
      "name": "Scene",
      "nodes": [
        1
      ]
    }
  ],
  "scene": 0,
  "nodes": [
    {
      "name": "archer_tower_LVL_1",
      "extras": {
        "originalName": "archer_tower_LVL_1",
        "transformData": {
          "inheritType": 1,
          "eulerOrder": "ZYX",
          "parentMatrix": {
            "elements": [
              0.005,
              0,
              0,
              0,
              0,
              0.005,
              0,
              0,
              0,
              0,
              0.005,
              0,
              0,
              0,
              0,
              1
            ]
          },
          "parentMatrixWorld": {
            "elements": [
              0.005,
              0,
              0,
              0,
              0,
              0.005,
              0,
              0,
              0,
              0,
              0.005,
              0,
              0,
              0,
              0,
              1
            ]
          }
        }
      },
      "mesh": 0
    },
    {
      "matrix": [
        0.005,
        0,
        0,
        0,
        0,
        0.005,
        0,
        0,
        0,
        0,
        0.005,
        0,
        0,
        0,
        0,
        1
      ],
      "extras": {
        "unitScaleFactor": 1
      },
      "children": [
        0
      ]
    }
  ],
  "bufferViews": [
    {
      "buffer": 0,
      "byteOffset": 0,
      "byteLength": 53784,
      "target": 34962,
      "byteStride": 12
    },
    {
      "buffer": 0,
      "byteOffset": 53784,
      "byteLength": 53784,
      "target": 34962,
      "byteStride": 12
    },
    {
      "buffer": 0,
      "byteOffset": 107568,
      "byteLength": 35856,
      "target": 34962,
      "byteStride": 8
    }
  ],
  "buffers": [
    {
      "byteLength": 143424,
      "uri": "data:application/octet-stream;base64,"
    }
  ],
  "accessors": [
    {
      "bufferView": 0,
      "componentType": 5126,
      "count": 4482,
      "max": [
        297.6636962890625,
        1492.2862548828125,
        297.66400146484375
      ],
      "min": [
        -297.6636962890625,
        -2.212891101837158,
        -297.663330078125
      ],
      "type": "VEC3"
    },
    {
      "bufferView": 1,
      "componentType": 5126,
      "count": 4482,
      "max": [
        1,
        1,
        1
      ],
      "min": [
        -1,
        -1,
        -1
      ],
      "type": "VEC3"
    },
    {
      "bufferView": 2,
      "componentType": 5126,
      "count": 4482,
      "max": [
        0.052616044878959656,
        0.9715619087219238
      ],
      "min": [
        0.01589372754096985,
        0.019139055162668228
      ],
      "type": "VEC2"
    }
  ],
  "materials": [
    {
      "pbrMetallicRoughness": {
        "metallicFactor": 0,
        "roughnessFactor": 1,
        "baseColorTexture": {
          "index": 0,
          "texCoord": 0
        }
      }
    }
  ],
  "textures": [
    {
      "sampler": 0,
      "source": 0
    }
  ],
  "samplers": [
    {
      "magFilter": 9729,
      "minFilter": 9987,
      "wrapS": 33071,
      "wrapT": 33071
    }
  ],
  "images": [
    {
      "mimeType": "image/png",
      "uri": "data:image/png;base64,"
    }
  ],
  "meshes": [
    {
      "primitives": [
        {
          "mode": 4,
          "attributes": {
            "POSITION": 0,
            "NORMAL": 1,
            "TEXCOORD_0": 2
          },
          "material": 0
        }
      ]
    }
  ]
}