{
    "asset": {
        "version": "2.0",
        "generator": "THREE.GLTFExporter"
    },
    "scenes": [
        {
            "name": "Scene",
            "nodes": [4]
        }
    ],
    "scene": 0,
    "nodes": [
        {
            "matrix": [0.005, 0, 0, 0, 0, 0.005, 0, 0, 0, 0, 0.005, 0, 0, 0, 0, 1],
            "extras": {
                "unitScaleFactor": 1
            }
        },
        {
            "matrix": [
                1, 0, 0, 0, 0, 1, 0, 0, 0, 0, 1, 0, -0.000007177671250246931, 0.000016128644347190857,
                0.000016971440345514566, 1
            ],
            "name": "Archer_Tower_LVL_3_1",
            "extras": {
                "name": "Archer_Tower_LVL_3",
                "originalName": "Archer_Tower_LVL_3",
                "transformData": {
                    "inheritType": 1,
                    "eulerOrder": "ZYX",
                    "translation": [-0.000007177671250246931, 0.000016128644347190857, 0.000016971440345514566],
                    "parentMatrix": {
                        "elements": [0.005, 0, 0, 0, 0, 0.005, 0, 0, 0, 0, 0.005, 0, 0, 0, 0, 1]
                    },
                    "parentMatrixWorld": {
                        "elements": [0.005, 0, 0, 0, 0, 0.005, 0, 0, 0, 0, 0.005, 0, 0, 0, 0, 1]
                    }
                }
            },
            "mesh": 0
        },
        {
            "matrix": [0.005, 0, 0, 0, 0, 0.005, 0, 0, 0, 0, 0.005, 0, 0, 0, 0, 1],
            "extras": {
                "unitScaleFactor": 1
            },
            "children": [1]
        },
        {
            "name": "Archer_Tower_LVL_3",
            "extras": {
                "name": "Archer_Tower_LVL_3"
            },
            "children": [0, 2]
        },
        {
            "name": "Archer_Tower_LVL_3",
            "children": [3]
        }
    ],
    "bufferViews": [
        {
            "buffer": 0,
            "byteOffset": 0,
            "byteLength": 97668,
            "target": 34962,
            "byteStride": 12
        },
        {
            "buffer": 0,
            "byteOffset": 97668,
            "byteLength": 97668,
            "target": 34962,
            "byteStride": 12
        },
        {
            "buffer": 0,
            "byteOffset": 195336,
            "byteLength": 65112,
            "target": 34962,
            "byteStride": 8
        }
    ],
    "buffers": [
        {
            "byteLength": 260448,
            "uri": "data:application/octet-stream;base64,"
        }
    ],
    "accessors": [
        {
            "bufferView": 0,
            "componentType": 5126,
            "count": 8139,
            "max": [319.3397521972656, 1504.532958984375, 297.6641540527344],
            "min": [-319.33978271484375, -2.2129454612731934, -319.3397521972656],
            "type": "VEC3"
        },
        {
            "bufferView": 1,
            "componentType": 5126,
            "count": 8139,
            "max": [1, 1, 1],
            "min": [-1, -1, -1],
            "type": "VEC3"
        },
        {
            "bufferView": 2,
            "componentType": 5126,
            "count": 8139,
            "max": [0.1438722014427185, 0.9715619087219238],
            "min": [0.11648662388324738, 0.019650394096970558],
            "type": "VEC2"
        }
    ],
    "materials": [
        {
            "pbrMetallicRoughness": {
                "metallicFactor": 0.25,
                "roughnessFactor": 0.75,
                "baseColorTexture": {
                    "index": 0,
                    "texCoord": 0
                }
            }
        }
    ],
    "textures": [
        {
            "sampler": 0,
            "source": 0
        }
    ],
    "samplers": [
        {
            "magFilter": 9729,
            "minFilter": 9987,
            "wrapS": 33071,
            "wrapT": 33071
        }
    ],
    "images": [
        {
            "mimeType": "image/png",
            "uri": "data:image/png;base64,"
        }
    ],
    "meshes": [
        {
            "primitives": [
                {
                    "mode": 4,
                    "attributes": {
                        "POSITION": 0,
                        "NORMAL": 1,
                        "TEXCOORD_0": 2
                    },
                    "material": 0
                }
            ]
        }
    ]
}
