{
    "asset": {
        "version": "2.0",
        "generator": "THREE.GLTFExporter"
    },
    "scenes": [
        {
            "name": "Scene",
            "nodes": [2]
        }
    ],
    "scene": 0,
    "nodes": [
        {
            "name": "Archer_Tower_LVL_4",
            "extras": {
                "name": "Archer_Tower_LVL_4",
                "originalName": "Archer_Tower_LVL_4",
                "transformData": {
                    "inheritType": 1,
                    "eulerOrder": "ZYX",
                    "parentMatrix": {
                        "elements": [0.005, 0, 0, 0, 0, 0.005, 0, 0, 0, 0, 0.005, 0, 0, 0, 0, 1]
                    },
                    "parentMatrixWorld": {
                        "elements": [0.005, 0, 0, 0, 0, 0.005, 0, 0, 0, 0, 0.005, 0, 0, 0, 0, 1]
                    }
                }
            },
            "mesh": 0
        },
        {
            "matrix": [0.005, 0, 0, 0, 0, 0.005, 0, 0, 0, 0, 0.005, 0, 0, 0, 0, 1],
            "extras": {
                "unitScaleFactor": 1
            },
            "children": [0]
        },
        {
            "name": "Archer_Tower_LVL_4",
            "children": [1]
        }
    ],
    "bufferViews": [
        {
            "buffer": 0,
            "byteOffset": 0,
            "byteLength": 119160,
            "target": 34962,
            "byteStride": 12
        },
        {
            "buffer": 0,
            "byteOffset": 119160,
            "byteLength": 119160,
            "target": 34962,
            "byteStride": 12
        },
        {
            "buffer": 0,
            "byteOffset": 238320,
            "byteLength": 79440,
            "target": 34962,
            "byteStride": 8
        }
    ],
    "buffers": [
        {
            "byteLength": 317760,
            "uri": "data:application/octet-stream;base64,"
        }
    ],
    "accessors": [
        {
            "bufferView": 0,
            "componentType": 5126,
            "count": 9930,
            "max": [319.3401184082031, 1539.7791748046875, 315.069580078125],
            "min": [-319.3401184082031, -2.212928295135498, -319.3401184082031],
            "type": "VEC3"
        },
        {
            "bufferView": 1,
            "componentType": 5126,
            "count": 9930,
            "max": [1, 1, 1],
            "min": [-1, -1, -1],
            "type": "VEC3"
        },
        {
            "bufferView": 2,
            "componentType": 5126,
            "count": 9930,
            "max": [0.20135588943958282, 0.9737182259559631],
            "min": [0.12071365118026733, 0.021806716918945312],
            "type": "VEC2"
        }
    ],
    "materials": [
        {
            "pbrMetallicRoughness": {
                "metallicFactor": 0.25,
                "roughnessFactor": 0.75,
                "baseColorTexture": {
                    "index": 0,
                    "texCoord": 0
                }
            }
        }
    ],
    "textures": [
        {
            "sampler": 0,
            "source": 0
        }
    ],
    "samplers": [
        {
            "magFilter": 9729,
            "minFilter": 9987,
            "wrapS": 33071,
            "wrapT": 33071
        }
    ],
    "images": [
        {
            "mimeType": "image/png",
            "uri": "data:image/png;base64,"
        }
    ],
    "meshes": [
        {
            "primitives": [
                {
                    "mode": 4,
                    "attributes": {
                        "POSITION": 0,
                        "NORMAL": 1,
                        "TEXCOORD_0": 2
                    },
                    "material": 0
                }
            ]
        }
    ]
}
