{
    "asset": {
        "version": "2.0",
        "generator": "THREE.GLTFExporter"
    },
    "scenes": [
        {
            "name": "Scene",
            "nodes": [3]
        }
    ],
    "scene": 0,
    "nodes": [
        {
            "matrix": [
                0.004999999888241291, 0, 0, 0, 0, 0.004999999888241291, 0, 0, 0, 0, 0.004999999888241291, 0, 0, 0, 0, 1
            ],
            "name": "Ballista_Tower_LVL_2_Body",
            "extras": {
                "name": "Ballista_Tower_LVL_2_Body"
            },
            "mesh": 0
        },
        {
            "matrix": [
                0.004999999888241291, 0, 0, 0, 0, 0.004999999888241291, 0, 0, 0, 0, 0.004999999888241291, 0, 0, 0, 0, 1
            ],
            "name": "Ballista_Tower_LVL_2_Head",
            "extras": {
                "name": "Ballista_Tower_LVL_2_Head"
            },
            "mesh": 1
        },
        {
            "name": "Ballista_Tower_LVL_2",
            "extras": {
                "name": "Ballista_Tower_LVL_2"
            },
            "children": [0, 1]
        },
        {
            "name": "Ballista_Tower_LVL_2",
            "children": [2]
        }
    ],
    "bufferViews": [
        {
            "buffer": 0,
            "byteOffset": 0,
            "byteLength": 22212,
            "target": 34962,
            "byteStride": 12
        },
        {
            "buffer": 0,
            "byteOffset": 22212,
            "byteLength": 22212,
            "target": 34962,
            "byteStride": 12
        },
        {
            "buffer": 0,
            "byteOffset": 44424,
            "byteLength": 14808,
            "target": 34962,
            "byteStride": 8
        },
        {
            "buffer": 0,
            "byteOffset": 59232,
            "byteLength": 3704,
            "target": 34963
        },
        {
            "buffer": 0,
            "byteOffset": 62936,
            "byteLength": 49176,
            "target": 34962,
            "byteStride": 12
        },
        {
            "buffer": 0,
            "byteOffset": 112112,
            "byteLength": 49176,
            "target": 34962,
            "byteStride": 12
        },
        {
            "buffer": 0,
            "byteOffset": 161288,
            "byteLength": 32784,
            "target": 34962,
            "byteStride": 8
        },
        {
            "buffer": 0,
            "byteOffset": 194072,
            "byteLength": 8196,
            "target": 34963
        }
    ],
    "buffers": [
        {
            "byteLength": 202268,
            "uri": "data:application/octet-stream;base64,"
        }
    ],
    "accessors": [
        {
            "bufferView": 0,
            "componentType": 5126,
            "count": 1851,
            "max": [283.41827392578125, 994.1618041992188, 322.2406005859375],
            "min": [-283.41827392578125, -7.980708599090576, -283.41827392578125],
            "type": "VEC3"
        },
        {
            "bufferView": 1,
            "componentType": 5126,
            "count": 1851,
            "max": [1, 1, 1],
            "min": [-1, -1, -1],
            "type": "VEC3"
        },
        {
            "bufferView": 2,
            "componentType": 5126,
            "count": 1851,
            "max": [0.29529619216918945, 0.975561261177063],
            "min": [0.22834181785583496, 0.021408140659332275],
            "type": "VEC2"
        },
        {
            "bufferView": 3,
            "componentType": 5123,
            "count": 1851,
            "max": [1850],
            "min": [0],
            "type": "SCALAR"
        },
        {
            "bufferView": 4,
            "componentType": 5126,
            "count": 4098,
            "max": [306.62640380859375, 1404.78466796875, 305.48492431640625],
            "min": [-304.3421630859375, 994.1618041992188, -305.48358154296875],
            "type": "VEC3"
        },
        {
            "bufferView": 5,
            "componentType": 5126,
            "count": 4098,
            "max": [1, 1, 1],
            "min": [-1, -1, -1],
            "type": "VEC3"
        },
        {
            "bufferView": 6,
            "componentType": 5126,
            "count": 4098,
            "max": [0.29676467180252075, 0.8611384630203247],
            "min": [0.2405073195695877, 0.022291898727416992],
            "type": "VEC2"
        },
        {
            "bufferView": 7,
            "componentType": 5123,
            "count": 4098,
            "max": [4097],
            "min": [0],
            "type": "SCALAR"
        }
    ],
    "materials": [
        {
            "pbrMetallicRoughness": {
                "metallicFactor": 0.25,
                "roughnessFactor": 0.75,
                "baseColorTexture": {
                    "index": 0,
                    "texCoord": 0
                }
            }
        },
        {
            "pbrMetallicRoughness": {
                "metallicFactor": 0.25,
                "roughnessFactor": 0.75,
                "baseColorTexture": {
                    "index": 0,
                    "texCoord": 0
                }
            }
        }
    ],
    "textures": [
        {
            "sampler": 0,
            "source": 0
        }
    ],
    "samplers": [
        {
            "magFilter": 9729,
            "minFilter": 9987,
            "wrapS": 33071,
            "wrapT": 33071
        }
    ],
    "images": [
        {
            "mimeType": "image/png",
            "uri": "data:image/png;base64,"
        }
    ],
    "meshes": [
        {
            "primitives": [
                {
                    "mode": 4,
                    "attributes": {
                        "POSITION": 0,
                        "NORMAL": 1,
                        "TEXCOORD_0": 2
                    },
                    "indices": 3,
                    "material": 0
                }
            ]
        },
        {
            "primitives": [
                {
                    "mode": 4,
                    "attributes": {
                        "POSITION": 4,
                        "NORMAL": 5,
                        "TEXCOORD_0": 6
                    },
                    "indices": 7,
                    "material": 1
                }
            ]
        }
    ]
}
