{
    "asset": {
        "version": "2.0",
        "generator": "THREE.GLTFExporter"
    },
    "scenes": [
        {
            "name": "Scene",
            "nodes": [2]
        }
    ],
    "scene": 0,
    "nodes": [
        {
            "matrix": [
                0.004999999888241291, 0, 0, 0, 0, 0.004999999888241291, 0, 0, 0, 0, 0.004999999888241291, 0, 0, 0, 0, 1
            ],
            "name": "Cannon_Tower_LVL_2_Body",
            "extras": {
                "name": "Cannon_Tower_LVL_2_Body"
            },
            "mesh": 0
        },
        {
            "matrix": [
                0.004999999888241291, 0, 0, 0, 0, 0.004999999888241291, 0, 0, 0, 0, 0.004999999888241291, 0, 0, 0, 0, 1
            ],
            "name": "Cannon_Tower_LVL_2_Head",
            "extras": {
                "name": "Cannon_Tower_LVL_2_Head"
            },
            "mesh": 1
        },
        {
            "name": "Cannon_Tower_LVL_2",
            "children": [0, 1]
        }
    ],
    "bufferViews": [
        {
            "buffer": 0,
            "byteOffset": 0,
            "byteLength": 41148,
            "target": 34962,
            "byteStride": 12
        },
        {
            "buffer": 0,
            "byteOffset": 41148,
            "byteLength": 41148,
            "target": 34962,
            "byteStride": 12
        },
        {
            "buffer": 0,
            "byteOffset": 82296,
            "byteLength": 27432,
            "target": 34962,
            "byteStride": 8
        },
        {
            "buffer": 0,
            "byteOffset": 109728,
            "byteLength": 6860,
            "target": 34963
        },
        {
            "buffer": 0,
            "byteOffset": 116588,
            "byteLength": 65484,
            "target": 34962,
            "byteStride": 12
        },
        {
            "buffer": 0,
            "byteOffset": 182072,
            "byteLength": 65484,
            "target": 34962,
            "byteStride": 12
        },
        {
            "buffer": 0,
            "byteOffset": 247556,
            "byteLength": 43656,
            "target": 34962,
            "byteStride": 8
        },
        {
            "buffer": 0,
            "byteOffset": 291212,
            "byteLength": 10916,
            "target": 34963
        }
    ],
    "buffers": [
        {
            "byteLength": 302128,
            "uri": "data:application/octet-stream;base64,"
        }
    ],
    "accessors": [
        {
            "bufferView": 0,
            "componentType": 5126,
            "count": 3429,
            "max": [302.51654052734375, 1105.2120361328125, 297.72882080078125],
            "min": [-299.8009948730469, -4.947273254394531, -302.21533203125],
            "type": "VEC3"
        },
        {
            "bufferView": 1,
            "componentType": 5126,
            "count": 3429,
            "max": [1, 1, 1],
            "min": [-1, -1, -1],
            "type": "VEC3"
        },
        {
            "bufferView": 2,
            "componentType": 5126,
            "count": 3429,
            "max": [0.7655723094940186, 0.9667261838912964],
            "min": [0.7156494855880737, 0.019825756549835205],
            "type": "VEC2"
        },
        {
            "bufferView": 3,
            "componentType": 5123,
            "count": 3429,
            "max": [3428],
            "min": [0],
            "type": "SCALAR"
        },
        {
            "bufferView": 4,
            "componentType": 5126,
            "count": 5457,
            "max": [301.78253173828125, 1483.0455322265625, 300.3692321777344],
            "min": [-301.6490783691406, 1100.791015625, -302.21533203125],
            "type": "VEC3"
        },
        {
            "bufferView": 5,
            "componentType": 5126,
            "count": 5457,
            "max": [1, 1, 1],
            "min": [-1, -1, -1],
            "type": "VEC3"
        },
        {
            "bufferView": 6,
            "componentType": 5126,
            "count": 5457,
            "max": [0.7650905251502991, 0.865768551826477],
            "min": [0.7214617729187012, 0.01897752285003662],
            "type": "VEC2"
        },
        {
            "bufferView": 7,
            "componentType": 5123,
            "count": 5457,
            "max": [5456],
            "min": [0],
            "type": "SCALAR"
        }
    ],
    "materials": [
        {
            "pbrMetallicRoughness": {
                "metallicFactor": 0.25,
                "roughnessFactor": 0.75,
                "baseColorTexture": {
                    "index": 0,
                    "texCoord": 0
                }
            }
        },
        {
            "pbrMetallicRoughness": {
                "metallicFactor": 0.25,
                "roughnessFactor": 0.75,
                "baseColorTexture": {
                    "index": 1,
                    "texCoord": 0
                }
            }
        }
    ],
    "textures": [
        {
            "sampler": 0,
            "source": 0
        },
        {
            "sampler": 1,
            "source": 1
        }
    ],
    "samplers": [
        {
            "magFilter": 9729,
            "minFilter": 9987,
            "wrapS": 33071,
            "wrapT": 33071
        },
        {
            "magFilter": 9729,
            "minFilter": 9987,
            "wrapS": 33071,
            "wrapT": 33071
        }
    ],
    "images": [
        {
            "mimeType": "image/png",
            "uri": "data:image/png;base64,"
        },
        {
            "mimeType": "image/png",
            "uri": "data:image/png;base64,"
        }
    ],
    "meshes": [
        {
            "primitives": [
                {
                    "mode": 4,
                    "attributes": {
                        "POSITION": 0,
                        "NORMAL": 1,
                        "TEXCOORD_0": 2
                    },
                    "indices": 3,
                    "material": 0
                }
            ]
        },
        {
            "primitives": [
                {
                    "mode": 4,
                    "attributes": {
                        "POSITION": 4,
                        "NORMAL": 5,
                        "TEXCOORD_0": 6
                    },
                    "indices": 7,
                    "material": 1
                }
            ]
        }
    ]
}
