{
    "asset": {
        "version": "2.0",
        "generator": "THREE.GLTFExporter"
    },
    "scenes": [
        {
            "name": "Scene",
            "nodes": [2]
        }
    ],
    "scene": 0,
    "nodes": [
        {
            "matrix": [
                0.004999999888241291, 0, 0, 0, 0, 0.004999999888241291, 0, 0, 0, 0, 0.004999999888241291, 0, 0, 0, 0, 1
            ],
            "name": "Wizard_tower_LVL_2_Body",
            "extras": {
                "name": "Wizard_tower_LVL_2_Body"
            },
            "mesh": 0
        },
        {
            "matrix": [
                0.004999999888241291, 0, 0, 0, 0, 0.004999999888241291, 0, 0, 0, 0, 0.004999999888241291, 0, 0, 0, 0, 1
            ],
            "name": "Wizard_tower_LVL_2_Head",
            "extras": {
                "name": "Wizard_tower_LVL_2_Head"
            },
            "mesh": 1
        },
        {
            "name": "Wizard_Tower_LVL_2",
            "children": [0, 1]
        }
    ],
    "bufferViews": [
        {
            "buffer": 0,
            "byteOffset": 0,
            "byteLength": 47052,
            "target": 34962,
            "byteStride": 12
        },
        {
            "buffer": 0,
            "byteOffset": 47052,
            "byteLength": 47052,
            "target": 34962,
            "byteStride": 12
        },
        {
            "buffer": 0,
            "byteOffset": 94104,
            "byteLength": 31368,
            "target": 34962,
            "byteStride": 8
        },
        {
            "buffer": 0,
            "byteOffset": 125472,
            "byteLength": 7844,
            "target": 34963
        },
        {
            "buffer": 0,
            "byteOffset": 133316,
            "byteLength": 4032,
            "target": 34962,
            "byteStride": 12
        },
        {
            "buffer": 0,
            "byteOffset": 137348,
            "byteLength": 4032,
            "target": 34962,
            "byteStride": 12
        },
        {
            "buffer": 0,
            "byteOffset": 141380,
            "byteLength": 2688,
            "target": 34962,
            "byteStride": 8
        },
        {
            "buffer": 0,
            "byteOffset": 144068,
            "byteLength": 672,
            "target": 34963
        }
    ],
    "buffers": [
        {
            "byteLength": 144740,
            "uri": "data:application/octet-stream;base64,"
        }
    ],
    "accessors": [
        {
            "bufferView": 0,
            "componentType": 5126,
            "count": 3921,
            "max": [275.95611572265625, 1784.8306884765625, 275.9563903808594],
            "min": [-275.9560852050781, -3.8833281993865967, -275.9557189941406],
            "type": "VEC3"
        },
        {
            "bufferView": 1,
            "componentType": 5126,
            "count": 3921,
            "max": [1, 1, 1],
            "min": [-1, -1, -1],
            "type": "VEC3"
        },
        {
            "bufferView": 2,
            "componentType": 5126,
            "count": 3921,
            "max": [0.9137925505638123, 0.9699090719223022],
            "min": [0.8836492896080017, 0.016160786151885986],
            "type": "VEC2"
        },
        {
            "bufferView": 3,
            "componentType": 5123,
            "count": 3921,
            "max": [3920],
            "min": [0],
            "type": "SCALAR"
        },
        {
            "bufferView": 4,
            "componentType": 5126,
            "count": 336,
            "max": [74.2755355834961, 2042.4488525390625, 74.27616882324219],
            "min": [-74.27552032470703, 1893.8978271484375, -74.27487182617188],
            "type": "VEC3"
        },
        {
            "bufferView": 5,
            "componentType": 5126,
            "count": 336,
            "max": [0.9086704254150391, 0.9775940179824829, 0.9086704254150391],
            "min": [-0.9086704254150391, -0.9775940179824829, -0.9086704254150391],
            "type": "VEC3"
        },
        {
            "bufferView": 6,
            "componentType": 5126,
            "count": 336,
            "max": [0.9083485007286072, 0.30332714319229126],
            "min": [0.9013074636459351, 0.2987580895423889],
            "type": "VEC2"
        },
        {
            "bufferView": 7,
            "componentType": 5123,
            "count": 336,
            "max": [335],
            "min": [0],
            "type": "SCALAR"
        }
    ],
    "materials": [
        {
            "pbrMetallicRoughness": {
                "metallicFactor": 0.25,
                "roughnessFactor": 0.75,
                "baseColorTexture": {
                    "index": 0,
                    "texCoord": 0
                }
            }
        },
        {
            "pbrMetallicRoughness": {
                "metallicFactor": 0.25,
                "roughnessFactor": 0.75,
                "baseColorTexture": {
                    "index": 1,
                    "texCoord": 0
                }
            }
        }
    ],
    "textures": [
        {
            "sampler": 0,
            "source": 0
        },
        {
            "sampler": 1,
            "source": 1
        }
    ],
    "samplers": [
        {
            "magFilter": 9729,
            "minFilter": 9987,
            "wrapS": 33071,
            "wrapT": 33071
        },
        {
            "magFilter": 9729,
            "minFilter": 9987,
            "wrapS": 33071,
            "wrapT": 33071
        }
    ],
    "images": [
        {
            "mimeType": "image/png",
            "uri": "data:image/png;base64,"
        },
        {
            "mimeType": "image/png",
            "uri": "data:image/png;base64,"
        }
    ],
    "meshes": [
        {
            "primitives": [
                {
                    "mode": 4,
                    "attributes": {
                        "POSITION": 0,
                        "NORMAL": 1,
                        "TEXCOORD_0": 2
                    },
                    "indices": 3,
                    "material": 0
                }
            ]
        },
        {
            "primitives": [
                {
                    "mode": 4,
                    "attributes": {
                        "POSITION": 4,
                        "NORMAL": 5,
                        "TEXCOORD_0": 6
                    },
                    "indices": 7,
                    "material": 1
                }
            ]
        }
    ]
}
