{
    "asset": {
        "version": "2.0",
        "generator": "THREE.GLTFExporter"
    },
    "scenes": [
        {
            "name": "Scene",
            "nodes": [2]
        }
    ],
    "scene": 0,
    "nodes": [
        {
            "matrix": [
                0.004999999888241291, 0, 0, 0, 0, 0.004999999888241291, 0, 0, 0, 0, 0.004999999888241291, 0, 0, 0, 0, 1
            ],
            "name": "Wizard_Tower_LVL_1_Body",
            "extras": {
                "name": "Wizard_Tower_LVL_1_Body"
            },
            "mesh": 0
        },
        {
            "matrix": [
                0.004999999888241291, 0, 0, 0, 0, 0.004999999888241291, 0, 0, 0, 0, 0.004999999888241291, 0, 0, 0, 0, 1
            ],
            "name": "Wizard_Tower_LVL_1_Head",
            "extras": {
                "name": "Wizard_Tower_LVL_1_Head"
            },
            "mesh": 1
        },
        {
            "name": "Wizard_Tower_LVL_1",
            "children": [0, 1]
        }
    ],
    "bufferViews": [
        {
            "buffer": 0,
            "byteOffset": 0,
            "byteLength": 59688,
            "target": 34962,
            "byteStride": 12
        },
        {
            "buffer": 0,
            "byteOffset": 59688,
            "byteLength": 59688,
            "target": 34962,
            "byteStride": 12
        },
        {
            "buffer": 0,
            "byteOffset": 119376,
            "byteLength": 39792,
            "target": 34962,
            "byteStride": 8
        },
        {
            "buffer": 0,
            "byteOffset": 159168,
            "byteLength": 9948,
            "target": 34963
        },
        {
            "buffer": 0,
            "byteOffset": 169116,
            "byteLength": 4608,
            "target": 34962,
            "byteStride": 12
        },
        {
            "buffer": 0,
            "byteOffset": 173724,
            "byteLength": 4608,
            "target": 34962,
            "byteStride": 12
        },
        {
            "buffer": 0,
            "byteOffset": 178332,
            "byteLength": 3072,
            "target": 34962,
            "byteStride": 8
        },
        {
            "buffer": 0,
            "byteOffset": 181404,
            "byteLength": 768,
            "target": 34963
        }
    ],
    "buffers": [
        {
            "byteLength": 182172,
            "uri": "data:application/octet-stream;base64,"
        }
    ],
    "accessors": [
        {
            "bufferView": 0,
            "componentType": 5126,
            "count": 4974,
            "max": [275.95611572265625, 1784.8306884765625, 275.9563903808594],
            "min": [-275.9560852050781, -2.0156376361846924, -275.9557189941406],
            "type": "VEC3"
        },
        {
            "bufferView": 1,
            "componentType": 5126,
            "count": 4974,
            "max": [1, 1, 1],
            "min": [-1, -1, -1],
            "type": "VEC3"
        },
        {
            "bufferView": 2,
            "componentType": 5126,
            "count": 4974,
            "max": [0.914095401763916, 0.9699090719223022],
            "min": [0.8786322474479675, 0.01724022626876831],
            "type": "VEC2"
        },
        {
            "bufferView": 3,
            "componentType": 5123,
            "count": 4974,
            "max": [4973],
            "min": [0],
            "type": "SCALAR"
        },
        {
            "bufferView": 4,
            "componentType": 5126,
            "count": 384,
            "max": [97.95629119873047, 2026.2119140625, 74.27615356445312],
            "min": [-83.46575164794922, 1867.224853515625, -71.51136016845703],
            "type": "VEC3"
        },
        {
            "bufferView": 5,
            "componentType": 5126,
            "count": 384,
            "max": [0.9929230213165283, 0.9775860905647278, 0.9690684676170349],
            "min": [-0.9855100512504578, -1, -0.9329983592033386],
            "type": "VEC3"
        },
        {
            "bufferView": 6,
            "componentType": 5126,
            "count": 384,
            "max": [0.9015682935714722, 0.31161630153656006],
            "min": [0.8951918482780457, 0.3067895174026489],
            "type": "VEC2"
        },
        {
            "bufferView": 7,
            "componentType": 5123,
            "count": 384,
            "max": [383],
            "min": [0],
            "type": "SCALAR"
        }
    ],
    "materials": [
        {
            "pbrMetallicRoughness": {
                "metallicFactor": 0.25,
                "roughnessFactor": 0.75,
                "baseColorTexture": {
                    "index": 0,
                    "texCoord": 0
                }
            }
        },
        {
            "pbrMetallicRoughness": {
                "metallicFactor": 0.25,
                "roughnessFactor": 0.75,
                "baseColorTexture": {
                    "index": 1,
                    "texCoord": 0
                }
            }
        }
    ],
    "textures": [
        {
            "sampler": 0,
            "source": 0
        },
        {
            "sampler": 1,
            "source": 1
        }
    ],
    "samplers": [
        {
            "magFilter": 9729,
            "minFilter": 9987,
            "wrapS": 33071,
            "wrapT": 33071
        },
        {
            "magFilter": 9729,
            "minFilter": 9987,
            "wrapS": 33071,
            "wrapT": 33071
        }
    ],
    "images": [
        {
            "mimeType": "image/png",
            "uri": "data:image/png;base64,"
        },
        {
            "mimeType": "image/png",
            "uri": "data:image/png;base64,"
        }
    ],
    "meshes": [
        {
            "primitives": [
                {
                    "mode": 4,
                    "attributes": {
                        "POSITION": 0,
                        "NORMAL": 1,
                        "TEXCOORD_0": 2
                    },
                    "indices": 3,
                    "material": 0
                }
            ]
        },
        {
            "primitives": [
                {
                    "mode": 4,
                    "attributes": {
                        "POSITION": 4,
                        "NORMAL": 5,
                        "TEXCOORD_0": 6
                    },
                    "indices": 7,
                    "material": 1
                }
            ]
        }
    ]
}
